<svg width="400" height="400" viewBox="0 0 400 400" fill="none" xmlns="http://www.w3.org/2000/svg">
<g clip-path="url(#clip0_22_62)">
<path d="M354.175 37.1633L263.597 18.276L299.983 19.5733L346.393 18.276L354.175 37.1633Z" fill="#0166FF"/>
<path d="M287.513 17.8884L262.09 17.3933L262.216 4.01106L346.027 17.6892L287.513 17.8884Z" fill="#0166FF"/>
<path d="M360.761 59.0278L270.183 40.1405L306.569 41.4378L352.979 40.1405L360.761 59.0278Z" fill="#0166FF"/>
<path d="M294.099 39.7529L268.677 39.2578L268.802 25.8756L352.613 39.5537L294.099 39.7529Z" fill="#0166FF"/>
<path d="M361.899 89.8901H345.558V60.7366L361.899 63.1564V89.8901Z" fill="#0166FF"/>
<path d="M342.835 89.8901H326.494V55.8777L342.835 59.5096V89.8901Z" fill="#0166FF"/>
<rect x="361.899" y="153.056" width="16.3409" height="26.7241" transform="rotate(180 361.899 153.056)" fill="#0166FF"/>
<rect x="342.835" y="153.056" width="16.3409" height="26.7241" transform="rotate(180 342.835 153.056)" fill="#0166FF"/>
<rect x="361.899" y="121.473" width="16.3409" height="26.7241" transform="rotate(180 361.899 121.473)" fill="#0166FF"/>
<rect x="342.835" y="121.473" width="16.3409" height="26.7241" transform="rotate(180 342.835 121.473)" fill="#0166FF"/>
<path d="M376.581 180.919H360.331L345.558 157.915H363.261L376.581 180.919Z" fill="#0166FF"/>
<path d="M357.516 180.919H341.266L326.494 157.915L342.835 157.915L357.516 180.919Z" fill="#0166FF"/>
<path d="M400.028 198.355H380.167L362.111 183.019H380.167L400.028 198.355Z" fill="#0166FF"/>
<path d="M378.24 198.355H358.379L340.323 183.019H358.379L378.24 198.355Z" fill="#0166FF"/>
<path d="M355.314 362.837L264.736 381.725L301.122 380.427L347.532 381.725L355.314 362.837Z" fill="#0166FF"/>
<path d="M288.652 382.113L263.23 382.608L263.355 395.99L347.166 382.312L288.652 382.113Z" fill="#0166FF"/>
<path d="M361.901 340.973L271.322 359.86L307.708 358.563L354.118 359.86L361.901 340.973Z" fill="#0166FF"/>
<path d="M295.239 360.248L269.816 360.743L269.942 374.125L353.752 360.447L295.239 360.248Z" fill="#0166FF"/>
<path d="M363.038 310.111H346.697V339.264L363.038 336.844V310.111Z" fill="#0166FF"/>
<path d="M343.974 310.111H327.633V344.123L343.974 340.491V310.111Z" fill="#0166FF"/>
<rect width="16.3409" height="26.7241" transform="matrix(-1 0 0 1 363.038 246.944)" fill="#0166FF"/>
<rect width="16.3409" height="26.7241" transform="matrix(-1 0 0 1 343.974 246.944)" fill="#0166FF"/>
<rect width="16.3409" height="26.7241" transform="matrix(-1 0 0 1 363.038 278.528)" fill="#0166FF"/>
<rect width="16.3409" height="26.7241" transform="matrix(-1 0 0 1 343.974 278.528)" fill="#0166FF"/>
<path d="M377.72 219.081H361.47L346.698 242.086H364.4L377.72 219.081Z" fill="#0166FF"/>
<path d="M358.656 219.081H342.406L327.633 242.086L343.974 242.086L358.656 219.081Z" fill="#0166FF"/>
<path d="M401.167 201.645H381.306L363.251 216.982H381.306L401.167 201.645Z" fill="#0166FF"/>
<path d="M379.379 201.645H359.518L341.463 216.982H359.518L379.379 201.645Z" fill="#0166FF"/>
<path d="M48.0491 37.1628L141.573 18.2755L104.004 19.5728L56.0846 18.2755L48.0491 37.1628Z" fill="#0166FF"/>
<path d="M116.879 17.8877L143.129 17.3926L142.999 4.01033L56.4628 17.6884L116.879 17.8877Z" fill="#0166FF"/>
<path d="M41.2491 59.0273L134.773 40.14L97.2041 41.4373L49.2847 40.14L41.2491 59.0273Z" fill="#0166FF"/>
<path d="M110.079 39.7524L136.328 39.2573L136.199 25.8751L49.6622 39.5532L110.079 39.7524Z" fill="#0166FF"/>
<path d="M40.0743 89.8896H56.9467V60.7361L40.0743 63.1559V89.8896Z" fill="#0166FF"/>
<path d="M59.7584 89.8896H76.6308V55.8772L59.7584 59.5091V89.8896Z" fill="#0166FF"/>
<rect width="16.8724" height="26.7241" transform="matrix(1 0 0 -1 40.0743 153.056)" fill="#0166FF"/>
<rect width="16.8724" height="26.7241" transform="matrix(1 0 0 -1 59.7584 153.056)" fill="#0166FF"/>
<rect width="16.8724" height="26.7241" transform="matrix(1 0 0 -1 40.0743 121.472)" fill="#0166FF"/>
<rect width="16.8724" height="26.7241" transform="matrix(1 0 0 -1 59.7584 121.472)" fill="#0166FF"/>
<path d="M24.915 180.919H41.6934L56.9465 157.914H38.6681L24.915 180.919Z" fill="#0166FF"/>
<path d="M44.5996 180.919H61.378L76.631 157.914L59.7587 157.914L44.5996 180.919Z" fill="#0166FF"/>
<path d="M0.7052 198.355H21.2121L39.8547 183.018H21.2121L0.7052 198.355Z" fill="#0166FF"/>
<path d="M23.2017 198.355H43.7086L62.3512 183.018H43.7086L23.2017 198.355Z" fill="#0166FF"/>
<path d="M46.8729 362.837L140.397 381.724L102.828 380.427L54.9085 381.724L46.8729 362.837Z" fill="#0166FF"/>
<path d="M115.703 382.112L141.952 382.607L141.823 395.989L55.2863 382.311L115.703 382.112Z" fill="#0166FF"/>
<path d="M40.0726 340.972L133.597 359.859L96.0276 358.562L48.1082 359.859L40.0726 340.972Z" fill="#0166FF"/>
<path d="M108.902 360.247L135.152 360.742L135.022 374.124L48.4857 360.446L108.902 360.247Z" fill="#0166FF"/>
<path d="M38.8978 310.11H55.7702V339.263L38.8978 336.843V310.11Z" fill="#0166FF"/>
<path d="M58.5823 310.11H75.4546V344.122L58.5823 340.49V310.11Z" fill="#0166FF"/>
<rect x="38.8978" y="246.944" width="16.8724" height="26.7241" fill="#0166FF"/>
<rect x="58.5823" y="246.944" width="16.8724" height="26.7241" fill="#0166FF"/>
<rect x="38.8978" y="278.527" width="16.8724" height="26.7241" fill="#0166FF"/>
<rect x="58.5823" y="278.527" width="16.8724" height="26.7241" fill="#0166FF"/>
<path d="M23.7385 219.081H40.5169L55.77 242.085H37.4916L23.7385 219.081Z" fill="#0166FF"/>
<path d="M43.4231 219.081H60.2015L75.4545 242.085L58.5822 242.085L43.4231 219.081Z" fill="#0166FF"/>
<path d="M-0.471069 201.645H20.0358L38.6785 216.981H20.0358L-0.471069 201.645Z" fill="#0166FF"/>
<path d="M22.0251 201.645H42.532L61.1747 216.981H42.532L22.0251 201.645Z" fill="#0166FF"/>
</g>
<defs>
<clipPath id="clip0_22_62">
<rect width="400" height="400" fill="white"/>
</clipPath>
</defs>
</svg>
